<svg id="bill" xmlns="http://www.w3.org/2000/svg" width="38.249" height="40.305" viewBox="0 0 38.249 40.305">
  <path id="Path_37" data-name="Path 37" d="M121.451,114.719a.492.492,0,0,1-.053-.093.807.807,0,0,0-.98-.583c-.452.128-.612.477-.515,1.016a.47.47,0,0,1-.142.383,1.916,1.916,0,0,0-.734,1.114,2.155,2.155,0,0,0,2.164,2.573,13.258,13.258,0,0,1,1.459.162.954.954,0,0,1,.787.989c.017.409-.189.644-.687.827a1.648,1.648,0,0,1-1.48-.149.614.614,0,0,0-.774.042.626.626,0,0,0-.2.816,1.209,1.209,0,0,0,.5.5,3.809,3.809,0,0,0,1.123.272c.293.025.478.051.582.352a.677.677,0,0,0,.772.421c.358-.046.719-.268.649-.605-.112-.539.214-.785.545-1.1a1.68,1.68,0,0,0,.385-.642,2.5,2.5,0,0,0-2.232-3.226c-.516-.046-1.034-.083-1.544-.159a.622.622,0,0,1-.549-.57.609.609,0,0,1,.378-.679,2.347,2.347,0,0,1,1.466-.22c.5.073.793-.089.884-.493a.656.656,0,0,0-.6-.864A10.749,10.749,0,0,0,121.451,114.719Zm-4.6,17.143.093-.065c.161-.044.323-.087.483-.132q7.616-2.154,15.23-4.309c.857-.242,1.714-.484,2.567-.742.377-.114.547-.4.456-.688a.639.639,0,0,0-.794-.41c-.1.019-.189.05-.282.076l-15.862,4.5c-.643.182-1.286.359-1.927.549-.35.1-.58.343-.459.681C116.427,131.528,116.677,131.683,116.848,131.862Zm2.221,6.456c.134-.035.269-.068.4-.106l14.453-4.089c1.137-.322,2.273-.65,3.409-.975.3-.087.516-.283.459-.571a.808.808,0,0,0-.385-.5.965.965,0,0,0-.6.034q-7.607,2.145-15.209,4.3c-.9.253-1.8.5-2.689.758a.55.55,0,0,0-.459.656A.6.6,0,0,0,119.069,138.318Zm-1-3.283c.061-.016.183-.043.3-.077q5.1-1.442,10.207-2.886,3.777-1.07,7.554-2.143c.355-.1.621-.251.6-.643-.024-.446-.414-.618-1.014-.448l-15.26,4.327c-.884.25-1.767.5-2.647.76a.521.521,0,0,0-.424.633C117.45,134.867,117.656,135.043,118.072,135.035Zm-2.122-6.53c.071-.017.206-.047.339-.085l16.594-4.7c.429-.121.862-.231,1.286-.366.288-.092.521-.292.436-.586a.888.888,0,0,0-.432-.5,1,1,0,0,0-.6.055q-7.491,2.115-14.979,4.241-1.425.4-2.849.812c-.338.1-.539.312-.482.641C115.315,128.321,115.53,128.508,115.95,128.505Z" transform="translate(-105.546 -105.038)" fill="#fff"/>
  <path id="Path_38" data-name="Path 38" d="M27.133,0a.446.446,0,0,0,.11.056A2.716,2.716,0,0,1,29.4,2q4.233,13.043,8.465,26.085a6.626,6.626,0,0,1,.377,1.445,2.547,2.547,0,0,1-2.013,2.666q-2.627.769-5.27,1.49c-.339.093-.478.221-.45.561a11.912,11.912,0,0,1,0,1.3.576.576,0,0,1-.617.606.6.6,0,0,1-.644-.591c-.019-.444,0-.89,0-1.379L12.028,39.034c.007.03.013.059.019.089H27.54a1.511,1.511,0,0,0,1.714-1.235.649.649,0,0,1,.775-.5.6.6,0,0,1,.45.771,2.635,2.635,0,0,1-1.825,2l-.423.151H2.283c-.167-.059-.335-.116-.5-.176A2.608,2.608,0,0,1,.007,37.64Q0,31.772,0,25.909C0,20.518,0,15.126.02,9.734A4.011,4.011,0,0,1,.351,8.177,2.413,2.413,0,0,1,2.129,6.852c.327-.076.436-.2.442-.532A3.681,3.681,0,0,1,4.858,2.83a4.085,4.085,0,0,1,4.214.33A11.829,11.829,0,0,1,10.46,4.473c.049-.013.221-.054.39-.1l10.943-3.1c.623-.176.98-.08,1.1.293s-.115.651-.72.822q-6.648,1.883-13.3,3.76c-.361.1-.464.25-.461.6.02,2.086.016,4.171.008,6.257a2.767,2.767,0,0,1-2.213,2.765A3.012,3.012,0,0,1,3.2,14.8a.648.648,0,0,0-.3-.224c.193.607.382,1.215.58,1.82Q4.668,20.06,5.858,23.72a1.118,1.118,0,0,1,.088.457.591.591,0,0,1-.591.522.608.608,0,0,1-.634-.474c-.447-1.386-.9-2.771-1.348-4.157q-.965-2.987-1.926-5.975c-.028-.086-.065-.17-.14-.364-.025.194-.047.283-.047.372q0,11.767,0,23.535a1.44,1.44,0,0,0,1.575,1.485q3.917.006,7.834,0c.153,0,.307-.018.5-.031-.242-.1-.451-.183-.66-.264A2.9,2.9,0,0,1,8.8,36.808Q7.166,31.749,5.521,26.695c-.1-.32-.111-.634.266-.816a.6.6,0,0,1,.756.146,1.169,1.169,0,0,1,.2.427q1.644,5.049,3.281,10.1c.387,1.191,1.043,1.538,2.315,1.179q10.853-3.064,21.7-6.14c.563-.159,1.127-.314,1.687-.479a1.451,1.451,0,0,0,1.147-2.037q-2.613-8.053-5.229-16.1Q29.939,7.715,28.23,2.46c-.37-1.139-1.073-1.485-2.307-1.134-.307.087-.616.175-.927.254a.652.652,0,0,1-.869-.393c-.1-.308.1-.594.522-.723C25.167.305,25.686.154,26.2,0ZM9.056,4.868A2.863,2.863,0,0,0,5.977,3.692,2.633,2.633,0,0,0,3.851,6.216c-.04,2.294-.041,4.589-.036,6.883a1.641,1.641,0,0,0,1.7,1.608A1.623,1.623,0,0,0,7.166,13.06q0-2.439,0-4.879c0-.63,0-1.259,0-1.888a.462.462,0,0,0-.493-.482.453.453,0,0,0-.524.4,3.112,3.112,0,0,0-.033.509c0,1.784,0,3.567-.006,5.35a.594.594,0,0,1-.641.67.611.611,0,0,1-.58-.686c0-1.954-.009-3.908,0-5.862a1.492,1.492,0,0,1,.931-1.392A1.69,1.69,0,0,1,7.6,4.89a.916.916,0,0,0,.984.126C8.728,4.962,8.876,4.925,9.056,4.868ZM2.565,8a2.708,2.708,0,0,0-.357.076A1.332,1.332,0,0,0,1.328,9.7c.336,1.119.708,2.227,1.068,3.339a1.927,1.927,0,0,0,.169.275Z" transform="translate(-0.001)" fill="#194e78"/>
  <path id="Path_39" data-name="Path 39" d="M161.968,114.719a11.073,11.073,0,0,1,1.2.084.656.656,0,0,1,.6.864c-.091.4-.383.567-.884.493a2.347,2.347,0,0,0-1.466.22.609.609,0,0,0-.378.679.624.624,0,0,0,.549.57c.51.076,1.029.113,1.544.159a2.5,2.5,0,0,1,2.232,3.226,1.674,1.674,0,0,1-.385.642c-.331.311-.657.557-.545,1.1.07.338-.29.559-.649.605a.677.677,0,0,1-.772-.421c-.105-.3-.289-.327-.582-.352a3.834,3.834,0,0,1-1.123-.272,1.209,1.209,0,0,1-.5-.5.627.627,0,0,1,.2-.816.613.613,0,0,1,.774-.042,1.648,1.648,0,0,0,1.48.149c.5-.183.7-.418.687-.827a.954.954,0,0,0-.787-.989,13.234,13.234,0,0,0-1.459-.162,2.154,2.154,0,0,1-2.164-2.573,1.912,1.912,0,0,1,.734-1.114.468.468,0,0,0,.142-.383c-.1-.539.063-.888.515-1.016a.807.807,0,0,1,.98.583A.652.652,0,0,0,161.968,114.719Z" transform="translate(-146.063 -105.038)" fill="#194e78"/>
  <path id="Path_40" data-name="Path 40" d="M128.42,266.275c-.171-.18-.42-.335-.5-.545-.121-.338.109-.577.459-.681.639-.19,1.284-.367,1.927-.549l15.862-4.5c.094-.027.186-.057.282-.076a.639.639,0,0,1,.794.41c.091.289-.079.574-.456.688-.852.258-1.709.5-2.567.742q-7.615,2.156-15.23,4.309c-.161.046-.322.088-.483.132Z" transform="translate(-117.118 -239.45)" fill="#aebfce"/>
  <path id="Path_41" data-name="Path 41" d="M153.661,349.295a.6.6,0,0,1-.621-.49.55.55,0,0,1,.459-.656c.894-.26,1.793-.5,2.689-.758q7.6-2.154,15.209-4.3a.97.97,0,0,1,.6-.034.806.806,0,0,1,.385.5c.057.287-.157.484-.459.571q-1.7.489-3.409.975-7.227,2.046-14.453,4.089C153.93,349.226,153.795,349.259,153.661,349.295Z" transform="translate(-140.137 -316.015)" fill="#aebfce"/>
  <path id="Path_42" data-name="Path 42" d="M141.166,307.812c-.416.008-.623-.168-.681-.475a.521.521,0,0,1,.424-.633c.88-.259,1.764-.51,2.647-.76l15.26-4.327c.6-.17.991,0,1.014.448.02.391-.245.542-.6.643q-3.778,1.065-7.554,2.143-5.1,1.445-10.207,2.886C141.349,307.769,141.227,307.8,141.166,307.812Z" transform="translate(-128.64 -277.814)" fill="#aebfce"/>
  <path id="Path_43" data-name="Path 43" d="M115.941,224.837c-.42,0-.635-.184-.687-.482-.057-.329.144-.545.482-.641l2.849-.812q7.488-2.123,14.979-4.241a1,1,0,0,1,.6-.055.887.887,0,0,1,.432.5c.083.294-.148.494-.436.586-.424.135-.857.245-1.286.366l-16.594,4.7C116.148,224.789,116.012,224.819,115.941,224.837Z" transform="translate(-105.537 -201.369)" fill="#aebfce"/>
  <path id="Path_44" data-name="Path 44" d="M50.495,47.138c-.179.057-.328.093-.468.15a.917.917,0,0,1-.984-.126,1.69,1.69,0,0,0-1.79-.084,1.489,1.489,0,0,0-.931,1.392c-.005,1.954,0,3.908,0,5.862a.611.611,0,0,0,.58.686.594.594,0,0,0,.641-.67c.008-1.784,0-3.567.006-5.35a3.118,3.118,0,0,1,.033-.509.453.453,0,0,1,.524-.4.461.461,0,0,1,.493.482c0,.63,0,1.259,0,1.888q0,2.439,0,4.879a1.622,1.622,0,0,1-1.649,1.648,1.641,1.641,0,0,1-1.7-1.608c-.006-2.295,0-4.589.036-6.883a2.631,2.631,0,0,1,2.125-2.524A2.86,2.86,0,0,1,50.495,47.138Z" transform="translate(-41.44 -42.27)" fill="#aebfce"/>
  <path id="Path_45" data-name="Path 45" d="M16.389,101.63v5.318a1.773,1.773,0,0,1-.169-.275c-.36-1.112-.732-2.221-1.068-3.339a1.331,1.331,0,0,1,.88-1.629A2.84,2.84,0,0,1,16.389,101.63Z" transform="translate(-13.824 -93.63)" fill="#aebfce"/>
</svg>
