<svg xmlns="http://www.w3.org/2000/svg" xmlns:xlink="http://www.w3.org/1999/xlink" width="120" height="120" viewBox="0 0 120 120">
  <defs>
    <filter id="Ellipse_1" x="0" y="0" width="120" height="120" filterUnits="userSpaceOnUse">
      <feOffset input="SourceAlpha"/>
      <feGaussianBlur stdDeviation="7.5" result="blur"/>
      <feFlood flood-opacity="0.49"/>
      <feComposite operator="in" in2="blur"/>
      <feComposite in="SourceGraphic"/>
    </filter>
  </defs>
  <g id="home-icon" transform="translate(-140.5 -603.898)">
    <g transform="matrix(1, 0, 0, 1, 140.5, 603.9)" filter="url(#Ellipse_1)">
      <circle id="Ellipse_1-2" data-name="Ellipse 1" cx="37.5" cy="37.5" r="37.5" transform="translate(22.5 22.5)" fill="#194e78"/>
    </g>
    <g id="home" transform="translate(177.327 644.541)">
      <path id="Path_18" data-name="Path 18" d="M0,18.737a5.056,5.056,0,0,1,.581-.689Q10.794,9.524,21.018,1.015a3.612,3.612,0,0,1,5.036.008q3.194,2.662,6.381,5.333c.115.1.236.187.419.332.012-.213.026-.355.026-.5,0-1.624,0-3.247,0-4.871,0-.93.3-1.228,1.245-1.229q2.5,0,5.009,0c.894,0,1.215.327,1.215,1.224,0,3.722.006,7.445-.008,11.167a.887.887,0,0,0,.368.771c1.917,1.575,3.821,3.165,5.73,4.751.777.645.821,1.087.181,1.852-.473.563-.941,1.129-1.418,1.69a1.021,1.021,0,0,1-1.661.142L24.132,5.5c-.187-.156-.376-.311-.6-.5-.734.61-1.461,1.213-2.187,1.818L3.559,21.655a1.041,1.041,0,0,1-1.727-.147C1.216,20.772.61,20.028,0,19.287,0,19.1,0,18.921,0,18.737Z" transform="translate(0 0.004)" fill="#fff"/>
      <path id="Path_19" data-name="Path 19" d="M72.964,89.1V77.959H65.473V89.138h-.558q-5.146,0-10.293,0A1.962,1.962,0,0,1,52.4,86.91q0-6.663-.005-13.326a.85.85,0,0,1,.32-.75q8.058-6.621,16.1-13.262c.128-.1.262-.2.416-.321,1.206.992,2.4,1.973,3.589,2.955q6.435,5.3,12.872,10.6a.85.85,0,0,1,.353.734c-.01,4.519,0,9.037-.009,13.555a1.893,1.893,0,0,1-2,2.035c-3.584.012-7.168,0-10.752,0A3.107,3.107,0,0,1,72.964,89.1Z" transform="translate(-45.681 -51.663)" fill="#fff"/>
    </g>
  </g>
</svg>
