<svg xmlns="http://www.w3.org/2000/svg" width="18.033" height="18" viewBox="0 0 18.033 18">
  <g id="refresh" transform="translate(-0.011 -0.003)">
    <path id="Path_105" data-name="Path 105" d="M13.941,1.454a3.04,3.04,0,0,1-.03-.463A.9.9,0,0,1,15.7.935c.137.733.262,1.467.391,2.2.036.2.073.4.1.6a.864.864,0,0,1-.83,1.009c-1.013-.021-2.026-.071-3.038-.134a.868.868,0,0,1-.754-.921.89.89,0,0,1,.811-.853c.088-.006.177,0,.327,0-.107-.068-.161-.106-.219-.138A7.2,7.2,0,0,0,2.135,11.122a.9.9,0,1,1-1.715.553A8.8,8.8,0,0,1,1.493,4.1,8.718,8.718,0,0,1,7.984.073,8.788,8.788,0,0,1,13.747,1.34C13.805,1.375,13.865,1.409,13.941,1.454Z" transform="translate(0 0)" fill="#fff"/>
    <path id="Path_106" data-name="Path 106" d="M35.256,111.652a3.125,3.125,0,0,1,.027.472.9.9,0,0,1-.872.819.917.917,0,0,1-.917-.776c-.107-.574-.2-1.149-.305-1.724-.062-.353-.129-.706-.183-1.06a.874.874,0,0,1,.877-1.027c.985.028,1.97.074,2.953.131a.877.877,0,0,1,.79.872.887.887,0,0,1-.755.9c-.1.015-.209.014-.348.021a1.694,1.694,0,0,0,.139.1A7.2,7.2,0,0,0,47.064,102a.9.9,0,1,1,1.711-.566,9.079,9.079,0,0,1,.392,2.661,9.03,9.03,0,0,1-13.74,7.659C35.381,111.722,35.332,111.7,35.256,111.652Z" transform="translate(-31.123 -95.074)" fill="#fff"/>
  </g>
</svg>
