<svg id="report" xmlns="http://www.w3.org/2000/svg" width="29.529" height="38.736" viewBox="0 0 29.529 38.736">
  <path id="Path_11636" data-name="Path 11636" d="M5.376,38.736a1.418,1.418,0,0,1-.839-1.526c.04-.99.01-1.981.01-3.012h-3.2a1.868,1.868,0,0,1-.526-.061A1.1,1.1,0,0,1,.01,33.117c-.01-.111,0-.222,0-.344Q-.005,17.084,0,1.415C0,.4.4,0,1.425,0H23.587c.96,0,1.385.414,1.385,1.374V4.608h3.214a1.169,1.169,0,0,1,1.334,1.314q0,15.735.01,31.47a1.367,1.367,0,0,1-.839,1.334Q17.018,38.741,5.376,38.736ZM2.294,2.284v29.61H22.667V2.284ZM24.962,6.9V32.794c0,.99-.414,1.4-1.395,1.4H6.832v2.254H27.205V6.912C26.467,6.9,25.74,6.9,24.962,6.9Z" fill="#194e78"/>
  <path id="Path_11637" data-name="Path 11637" d="M52.814,113h6.731a1.129,1.129,0,0,1,1.112,1.6,1.144,1.144,0,0,1-1.132.677H46.114a1.133,1.133,0,0,1-1.142-1.577,1.156,1.156,0,0,1,1.152-.687C48.357,113.01,50.58,113,52.814,113Z" transform="translate(-40.333 -101.58)" fill="#8ba4ba"/>
  <path id="Path_11638" data-name="Path 11638" d="M52.813,160.174H46.083a1.14,1.14,0,1,1,0-2.274H59.534a1.134,1.134,0,0,1,1.112,1.577,1.164,1.164,0,0,1-1.152.7Z" transform="translate(-40.323 -141.943)" fill="#8ba4ba"/>
  <path id="Path_11639" data-name="Path 11639" d="M52.892,202.81h6.731a1.135,1.135,0,1,1-.03,2.264H46.141a1.126,1.126,0,0,1-1.091-1.587,1.161,1.161,0,0,1,1.162-.687C48.425,202.81,50.659,202.81,52.892,202.81Z" transform="translate(-40.401 -182.305)" fill="#8ba4ba"/>
  <path id="Path_11640" data-name="Path 11640" d="M49.438,70.464H46.153a1.137,1.137,0,1,1-.02-2.264h6.609a1.135,1.135,0,1,1,.02,2.264Z" transform="translate(-40.362 -61.308)" fill="#194e78"/>
  <path id="Path_11641" data-name="Path 11641" d="M138.235,247.76h2.153a1.134,1.134,0,1,1,.02,2.264c-1.475.01-2.941.01-4.416,0a1.129,1.129,0,0,1-1.193-1.142,1.142,1.142,0,0,1,1.213-1.122C136.749,247.75,137.5,247.76,138.235,247.76Z" transform="translate(-121.176 -222.718)" fill="#194e78"/>
</svg>
