<svg xmlns="http://www.w3.org/2000/svg" width="24.877" height="24.756" viewBox="0 0 24.877 24.756">
  <g id="edit" transform="translate(-0.005 -0.011)">
    <path id="Path_145" data-name="Path 145" d="M126.259,3.857a3.2,3.2,0,0,1-.2.691,4.526,4.526,0,0,1-.686,1.016q-5.428,5.46-10.885,10.891a1.184,1.184,0,0,1-.491.286c-1.663.474-3.33.934-5,1.395-.638.176-1.03-.211-.855-.846q.688-2.5,1.392-5a1.183,1.183,0,0,1,.284-.493q5.444-5.461,10.9-10.908a2.777,2.777,0,0,1,4.055,0c.208.2.412.413.618.618a2.774,2.774,0,0,1,.828,1.584.318.318,0,0,0,.039.085ZM113.989,15.151l8.979-8.979L120.1,3.308l-8.978,8.978ZM121,2.31l2.9,2.9a8.861,8.861,0,0,0,.783-.72,1.476,1.476,0,0,0,.01-1.9,8.144,8.144,0,0,0-1.012-1.006,1.343,1.343,0,0,0-1.587-.153A8.324,8.324,0,0,0,121,2.31ZM109.6,16.682l3.164-.879-2.288-2.287C110.188,14.543,109.9,15.59,109.6,16.682Z" transform="translate(-101.377 0)" fill="#fff"/>
    <path id="Path_146" data-name="Path 146" d="M11.787,61.158q-4.288,0-8.575,0a3.059,3.059,0,0,1-3.031-2.1,3.4,3.4,0,0,1-.167-1.047Q0,49.992.008,41.975a3.07,3.07,0,0,1,3.129-3.146c1.8-.021,3.6-.007,5.393,0a.632.632,0,0,1,.7.619.642.642,0,0,1-.7.613c-1.773,0-3.547,0-5.32,0a1.844,1.844,0,0,0-1.894,1.428,2.4,2.4,0,0,0-.06.6q0,7.908,0,15.815a1.848,1.848,0,0,0,1.39,1.946,2.313,2.313,0,0,0,.6.073q8.563.006,17.126,0a1.882,1.882,0,0,0,1.988-2q0-2.636,0-5.272a.633.633,0,0,1,.51-.692.616.616,0,0,1,.718.653c0,.971,0,1.943,0,2.915,0,.9.014,1.8-.011,2.7a3.032,3.032,0,0,1-2.918,2.92c-1.789.035-3.579.014-5.368.016Q13.535,61.161,11.787,61.158Z" transform="translate(0 -36.394)" fill="#fff"/>
  </g>
</svg>
