<svg xmlns="http://www.w3.org/2000/svg" width="36.262" height="36.262" viewBox="0 0 36.262 36.262">
  <g id="assignment" transform="translate(-118)">
    <path id="Path_11632" data-name="Path 11632" d="M143.988,4.834h6.974a3.039,3.039,0,0,1,3.3,3.28V33a3.039,3.039,0,0,1-3.25,3.26H121.855A3.634,3.634,0,0,1,118,32.406V3.25A3.031,3.031,0,0,1,121.25,0h19.488a3.034,3.034,0,0,1,3.25,3.26Zm-19.67,30.226h26.765a1.825,1.825,0,0,0,1.978-1.978V8.033a1.824,1.824,0,0,0-2-1.988h-23.8a1.843,1.843,0,0,0-2.008,2.029V16.3h-1.211V8.124a3.04,3.04,0,0,1,3.27-3.28h15.461V3.33a1.855,1.855,0,0,0-2.1-2.119H121.3A1.854,1.854,0,0,0,119.2,3.3V32.76a2.366,2.366,0,0,0,.868,1.736,2.41,2.41,0,0,0,3.946-1.857c.02-2.483.01-4.965.01-7.438v-.394h1.211v.424c0,2.291-.02,4.582.01,6.873A4.063,4.063,0,0,1,124.318,35.061Z" fill="#194e78"/>
    <path id="Path_11633" data-name="Path 11633" d="M285.7,128.267a8.462,8.462,0,1,1,8.538,8.457A8.466,8.466,0,0,1,285.7,128.267Zm14.17,4.41a7.23,7.23,0,0,0-11.081-9.275,7.126,7.126,0,0,0-.323,9.255c.04-.111.091-.212.121-.313.353-.939.727-1.877,1.05-2.826a2.041,2.041,0,0,1,1.655-1.463c.252-.05.495-.121.747-.192a6.315,6.315,0,0,1-.293-2.866,2.425,2.425,0,0,1,2.442-2.17,2.386,2.386,0,0,1,2.372,2.24,5.178,5.178,0,0,1-.3,2.785c.232.061.444.141.646.172a2.164,2.164,0,0,1,1.827,1.625C299.072,130.659,299.476,131.638,299.869,132.678Zm-6.045-4.017c-.807.2-1.554.4-2.3.575a.907.907,0,0,0-.727.626c-.424,1.181-.868,2.362-1.322,3.532a.4.4,0,0,0,.151.535,7.269,7.269,0,0,0,9.083-.01.387.387,0,0,0,.131-.535c-.444-1.161-.888-2.321-1.312-3.492a.913.913,0,0,0-.747-.646c-.757-.172-1.5-.373-2.291-.575.242-.484.464-.918.666-1.362a1.836,1.836,0,0,0,.192-.646,14.356,14.356,0,0,0,0-1.473,1.207,1.207,0,0,0-2.412.02c-.01.111.01.232,0,.343a3.835,3.835,0,0,0,.606,2.584A2.791,2.791,0,0,1,293.824,128.661Z" transform="translate(-150.775 -107.709)" fill="#194e78"/>
    <path id="Path_11634" data-name="Path 11634" d="M149.436,155.182v-3.108H142.2v-6.045h7.216V142.9l6.156,6.156C153.574,151.034,151.505,153.1,149.436,155.182Zm-6.025-7.973v3.653h7.246v1.373l3.179-3.179c-1.05-1.07-2.129-2.17-3.219-3.27V147.2C148.2,147.209,145.823,147.209,143.411,147.209Z" transform="translate(-21.758 -128.478)" fill="#194e78"/>
    <path id="Path_11635" data-name="Path 11635" d="M154.2,173.013h7.206V171.6c1.08,1.1,2.17,2.2,3.219,3.27l-3.179,3.179v-1.373H154.2Z" transform="translate(-32.547 -154.282)" fill="#aebfce"/>
  </g>
</svg>
