<svg xmlns="http://www.w3.org/2000/svg" width="33.586" height="19.592" viewBox="0 0 33.586 19.592">
  <g id="eye_icon" transform="translate(-64 -144)">
    <path id="Path_11540" data-name="Path 11540" d="M97.507,153.813C93.545,149.248,88.07,144,80.793,144a15.494,15.494,0,0,0-8.475,2.606,45.251,45.251,0,0,0-8.23,7.1L64,153.8l.586.6c4.819,4.933,8.982,9.192,16.207,9.192a16.66,16.66,0,0,0,9.464-3.184,46.274,46.274,0,0,0,6.848-6.017l.481-.481Zm-16.714,6.98a7,7,0,1,1,7-7A7.006,7.006,0,0,1,80.793,160.793Z" fill="#194e78"/>
    <path id="Path_11541" data-name="Path 11541" d="M211.708,209.644a3.02,3.02,0,0,1,.481-1.644,4.211,4.211,0,1,0,4.2,4.216h0a3.02,3.02,0,0,1-1.644.481A3.057,3.057,0,0,1,211.708,209.644Z" transform="translate(-131.405 -58.402)" fill="#194e78"/>
  </g>
</svg>
